<?xml version="1.0" standalone="no"?>
<!DOCTYPE svg PUBLIC "-//W3C//DTD SVG 20010904//EN"
 "http://www.w3.org/TR/2001/REC-SVG-20010904/DTD/svg10.dtd">
<svg version="1.0" xmlns="http://www.w3.org/2000/svg"
 width="96.000000pt" height="96.000000pt" viewBox="0 0 96.000000 96.000000"
 preserveAspectRatio="xMidYMid meet">
<metadata>
Created by potrace 1.14, written by Peter Selinger 2001-2017
</metadata>
<g transform="translate(0.000000,96.000000) scale(0.100000,-0.100000)"
fill="#000000" stroke="none">
<path d="M250 862 c-61 -24 -100 -62 -131 -125 -16 -33 -38 -70 -49 -82 -42
-44 -60 -109 -66 -232 -5 -99 17 -210 39 -196 6 3 -2 -10 -17 -29 -25 -33 -27
-42 -24 -115 l3 -78 478 -3 478 -2 -3 57 -3 58 -58 31 c-57 30 -57 31 -37 49
11 10 22 33 26 51 4 20 14 36 25 39 10 4 19 15 19 25 0 13 5 17 15 14 23 -9
19 49 -4 70 -19 18 -19 18 1 57 17 33 19 52 16 123 -3 46 -10 90 -17 97 -48
57 -65 71 -88 75 -30 6 -45 22 -39 40 7 17 -60 72 -96 80 -5 1 -9 3 -10 4 -2
1 -25 3 -53 5 -47 2 -125 -26 -125 -46 0 -19 -33 -16 -55 5 -42 39 -161 54
-225 28z"/>
</g>
</svg>
